<svg width="450" height="450" viewBox="0 0 450 450" fill="none" xmlns="http://www.w3.org/2000/svg">
<path d="M127.57 200.05C127.57 200.05 140.69 143.51 220.35 143.51C281.48 143.51 309.57 200.05 309.57 200.05C370.22 200.05 369.77 266.87 362.71 273.22L349.39 279.34C346.27 294.85 333.31 306.49 317.79 306.49C302.88 306.49 290.34 295.76 286.61 281.17H172.44C168.71 295.76 156.17 306.49 141.26 306.49C126.04 306.49 113.29 295.3 109.86 280.24L94.9599 273.22C86.4199 251.61 91.2199 207.53 127.57 200.05ZM317.79 290.96C327.57 290.96 335.5 282.53 335.5 272.13C335.5 261.73 327.57 253.3 317.79 253.3C308.01 253.3 300.08 261.73 300.08 272.13C300.09 282.53 308.01 290.96 317.79 290.96ZM288.7 200.95C288.7 200.95 266.95 160.18 220.35 160.18C220.3 160.18 220.25 160.18 220.2 160.18L225.47 200.95H288.7ZM210.03 200.95L204.87 161.04C154.24 166.89 148.76 200.95 148.76 200.95H210.03ZM141.26 290.96C151.04 290.96 158.97 282.53 158.97 272.13C158.97 261.73 151.04 253.3 141.26 253.3C131.48 253.3 123.55 261.73 123.55 272.13C123.55 282.53 131.48 290.96 141.26 290.96Z" fill="white"/>
</svg>
