<svg width="3500" height="3500" viewBox="0 0 3500 3500" fill="none" xmlns="http://www.w3.org/2000/svg">
<path d="M2900 1866.37V1904.3C2900 2159.89 2711.01 2369 2480.03 2369H944.97C784.11 2369 645.18 2259.78 585.77 2105.04C565.97 2053.46 555 1996.82 555 1937.49C555 1705.26 723.03 1514.35 931.21 1506.26C951.35 1326.48 1089.89 1187.34 1257.81 1187.34C1334.8 1187.34 1405.61 1216.59 1461.67 1265.6C1541.75 1061.09 1725.8 918 1940.06 918C2199.26 918 2414.26 1127.41 2454.42 1401.67H2480.02C2711.01 1401.67 2900 1610.78 2900 1866.37Z" fill="white"/>
</svg>
