<svg width="1800" height="1800" viewBox="0 0 1800 1800" fill="none" xmlns="http://www.w3.org/2000/svg">
<path d="M1179.57 1035.6L1164.75 971.54L1215.33 928.24C1215.36 928.21 1215.38 928.18 1215.41 928.17L1352.24 811.04L1405.45 765.49C1433.28 741.65 1425.85 719.42 1388.94 716.07L1263.01 704.69L1069.96 687.24L993.26 513.71L943.25 400.55C928.59 367.36 904.57 367.36 889.9 400.55L839.88 513.71L763.18 687.24L570.12 704.7L444.22 716.08C407.29 719.43 399.87 741.67 427.74 765.53L617.73 928.18C617.75 928.2 617.76 928.21 617.78 928.23L668.39 971.56L653.6 1035.55C653.59 1035.59 653.58 1035.64 653.58 1035.67L597.99 1276.08C589.83 1311.35 609.25 1325.1 641.14 1306.64L828.41 1198.28L916.59 1147.25L1083.3 1243.71L1192.04 1306.62C1223.91 1325.06 1243.33 1311.33 1235.21 1276.11L1207.38 1155.86L1179.59 1035.67C1179.59 1035.63 1179.57 1035.62 1179.57 1035.6Z" fill="white"/>
</svg>
