<svg width="3500" height="3500" viewBox="0 0 3500 3500" fill="none" xmlns="http://www.w3.org/2000/svg">
<path d="M1746.56 2407.26C2119.2 2407.26 2421.29 2110.41 2421.29 1744.23C2421.29 1378.05 2119.2 1081.2 1746.56 1081.2C1373.92 1081.2 1071.83 1378.05 1071.83 1744.23C1071.83 2110.41 1373.92 2407.26 1746.56 2407.26Z" fill="white"/>
<path d="M1852.69 635H1647V939H1852.69V635Z" fill="white"/>
<path d="M1852.69 2561H1647.42V2840H1852.69V2561Z" fill="white"/>
<path d="M2875 1850.57V1648.86H2586.15V1850.57H2875Z" fill="white"/>
<path d="M640.998 1643.86V1845.57H917.848V1643.86H640.998Z" fill="white"/>
<path d="M2334.1 2365.32L2456.7 2203.54L2657.77 2350.45L2535.17 2512.23L2334.1 2365.32Z" fill="white"/>
<path d="M980.46 2564.2L847.22 2410.75L1037.94 2251.1L1171.17 2404.54L980.46 2564.2Z" fill="white"/>
<path d="M848.64 1134.86L984.79 983.9L1169.52 1144.49L1033.37 1295.45L848.64 1134.86Z" fill="white"/>
<path d="M2424.48 1297.39L2301.94 1135.75L2493.11 995.95L2615.65 1157.6L2424.48 1297.39Z" fill="white"/>
</svg>
